<?xml version="1.0" standalone="no"?>
<!DOCTYPE svg PUBLIC "-//W3C//DTD SVG 20010904//EN"
 "http://www.w3.org/TR/2001/REC-SVG-20010904/DTD/svg10.dtd">
<svg version="1.0" xmlns="http://www.w3.org/2000/svg"
 width="150.000000pt" height="141.000000pt" viewBox="0 0 150.000000 141.000000"
 preserveAspectRatio="xMidYMid meet">
<metadata>
Created by potrace 1.16, written by Peter Selinger 2001-2019
</metadata>
<g transform="translate(0.000000,141.000000) scale(0.019255,-0.019693)"
fill="#000000" stroke="none">
<path d="M740 6411 c-139 -33 -247 -142 -281 -284 -6 -26 -9 -86 -7 -135 5
-112 40 -195 107 -254 78 -69 118 -82 256 -82 79 -1 136 4 168 14 l47 14 0 83
c0 63 -3 83 -13 83 -8 0 -17 -3 -21 -7 -17 -17 -87 -33 -151 -33 -60 0 -77 4
-112 26 -149 98 -129 341 35 410 50 21 151 18 207 -6 26 -11 49 -20 51 -20 2
0 4 38 4 85 0 75 -2 86 -21 95 -26 14 -222 22 -269 11z"/>
<path d="M1300 6411 c-14 -4 -39 -11 -56 -15 -44 -11 -102 -61 -119 -103 -19
-46 -19 -156 0 -192 8 -16 33 -45 56 -64 39 -34 56 -43 147 -84 64 -28 102
-62 102 -89 0 -32 -16 -48 -64 -64 -50 -16 -139 2 -202 41 -24 16 -47 29 -49
29 -3 0 -5 -40 -5 -90 l0 -90 38 -17 c28 -12 67 -17 162 -17 133 -1 167 7 228
52 56 41 72 77 72 162 0 121 -29 156 -203 244 -78 40 -104 58 -111 79 -12 34
9 59 63 76 43 12 122 1 173 -25 53 -27 58 -22 58 64 0 76 -1 79 -27 91 -32 15
-226 24 -263 12z"/>
<path d="M3580 6411 c-119 -26 -190 -107 -190 -216 0 -98 48 -155 190 -226 57
-28 108 -56 115 -62 64 -66 -27 -133 -144 -107 -57 13 -78 22 -120 53 -13 9
-28 17 -33 17 -5 0 -7 -41 -6 -92 l3 -91 40 -15 c28 -11 79 -16 170 -16 120
-1 134 1 179 24 27 14 63 43 80 64 29 36 31 43 31 124 0 76 -3 92 -25 123 -27
41 -76 74 -190 129 -123 60 -138 110 -44 146 36 13 51 14 100 4 33 -7 71 -19
86 -26 45 -23 48 -19 48 66 0 79 -1 81 -27 91 -35 14 -216 21 -263 10z"/>
<path d="M4965 6411 c-16 -4 -51 -17 -77 -29 l-48 -21 0 -80 c0 -45 4 -81 8
-81 5 0 17 8 28 18 31 26 55 38 109 52 42 11 55 10 86 -3 98 -41 53 -157 -101
-267 -109 -77 -160 -163 -160 -270 l0 -70 250 0 250 0 0 75 0 75 -151 0 c-116
0 -150 3 -147 13 3 6 36 36 74 65 38 30 86 68 107 85 151 122 153 342 4 419
-46 23 -175 34 -232 19z"/>
<path d="M5583 6411 c-86 -22 -150 -99 -182 -217 -16 -60 -14 -288 3 -353 19
-70 56 -124 109 -158 38 -25 51 -28 132 -28 81 0 95 3 138 28 80 47 117 124
136 277 12 103 -1 232 -30 306 -21 53 -66 109 -108 132 -28 17 -153 24 -198
13z m115 -151 c30 -29 44 -81 49 -198 7 -138 -17 -238 -62 -262 -38 -20 -72
-5 -97 43 -20 38 -23 56 -23 182 0 157 4 181 41 224 30 36 61 40 92 11z"/>
<path d="M6150 6411 c-19 -4 -56 -17 -82 -29 l-48 -21 0 -80 c0 -63 3 -81 14
-81 8 0 16 4 18 8 8 19 68 51 119 62 48 11 60 10 87 -4 55 -29 67 -77 32 -134
-26 -42 -50 -66 -125 -124 -126 -96 -167 -162 -173 -275 l-4 -73 251 0 251 0
0 75 0 75 -152 0 -153 0 45 43 c25 24 61 54 80 67 117 79 180 179 180 284 0
133 -77 206 -225 212 -44 2 -96 0 -115 -5z"/>
<path d="M1890 6364 c-11 -25 -20 -49 -20 -53 0 -5 -9 -30 -19 -57 -11 -27
-29 -75 -40 -106 -55 -152 -64 -174 -71 -193 -5 -11 -19 -49 -31 -85 -12 -36
-30 -83 -39 -105 -10 -23 -21 -55 -25 -73 l-7 -32 94 0 94 0 11 33 c6 17 17
53 24 80 l13 47 127 0 126 0 25 -77 26 -78 96 -3 c53 -1 96 1 96 5 0 9 -13 46
-60 173 -17 47 -40 110 -50 140 -10 30 -33 93 -50 140 -40 110 -90 250 -97
273 -5 15 -19 17 -105 17 l-99 0 -19 -46z m186 -391 c-2 -2 -37 -3 -79 -1
l-75 3 34 105 c19 58 37 112 40 120 3 8 23 -39 45 -104 22 -65 38 -121 35
-123z"/>
<path d="M2440 6035 l0 -375 80 0 80 0 2 248 c3 246 3 247 20 197 15 -45 39
-112 100 -275 11 -30 29 -81 40 -112 l21 -58 72 0 c67 0 73 2 78 23 3 12 15
49 27 82 20 53 54 147 123 340 l22 60 3 -253 2 -253 83 3 82 3 0 370 0 370
-119 0 -119 0 -39 -110 c-21 -60 -48 -135 -59 -165 -12 -30 -23 -64 -26 -75
-2 -11 -9 -29 -13 -40 -5 -11 -16 -40 -24 -65 -8 -27 -16 -39 -19 -30 -34 98
-85 240 -127 353 -10 28 -25 71 -32 95 l-13 42 -122 0 -123 0 0 -375z"/>
<path d="M4010 6035 l0 -375 220 0 220 0 0 75 0 75 -135 0 -135 0 0 75 0 75
120 0 120 0 0 75 0 75 -120 0 -120 0 0 75 0 75 130 0 131 0 -3 73 -3 72 -212
3 -213 2 0 -375z"/>
<path d="M6859 6383 c-23 -45 -108 -182 -119 -193 -3 -3 -17 -21 -30 -40 -13
-19 -27 -37 -30 -40 -3 -3 -17 -21 -31 -40 -15 -19 -43 -53 -62 -75 -34 -38
-37 -44 -37 -107 l0 -68 160 0 160 0 0 -80 0 -80 80 0 80 0 0 80 0 80 50 0 50
0 0 65 0 65 -50 0 -50 0 0 230 0 230 -78 0 c-76 0 -79 -1 -93 -27z m11 -333
l0 -100 -75 0 -76 0 59 78 c32 42 64 87 71 100 6 12 14 22 16 22 3 0 5 -45 5
-100z"/>
<path d="M740 4016 c-177 -49 -280 -193 -280 -390 0 -160 66 -274 195 -336 44
-21 64 -24 170 -24 79 -1 136 4 168 14 l47 14 0 78 c0 89 3 87 -84 58 -100
-34 -178 -22 -241 36 -42 38 -75 115 -75 174 0 90 59 183 138 216 50 21 151
18 207 -6 26 -11 49 -20 51 -20 3 0 3 39 2 87 l-3 87 -55 12 c-69 16 -181 16
-240 0z"/>
<path d="M1275 4009 c-79 -24 -129 -66 -149 -126 -21 -61 -20 -109 3 -158 28
-60 75 -98 189 -154 79 -40 105 -57 113 -78 39 -102 -163 -124 -278 -31 -7 6
-20 8 -28 4 -13 -5 -15 -21 -13 -87 l3 -82 40 -15 c28 -11 79 -16 175 -16 124
-1 139 1 180 23 81 43 110 94 110 195 0 47 -6 75 -21 102 -27 49 -47 64 -159
121 -52 26 -105 57 -117 67 -68 58 25 129 138 105 30 -6 66 -18 81 -25 52 -27
58 -21 58 60 0 47 -4 77 -12 83 -46 35 -220 41 -313 12z"/>
<path d="M3577 4015 c-62 -18 -111 -49 -145 -93 -24 -32 -27 -44 -27 -117 0
-80 1 -83 37 -127 28 -35 62 -58 143 -99 100 -49 145 -85 145 -114 0 -6 -12
-22 -26 -36 -22 -21 -34 -24 -97 -23 -71 1 -167 33 -167 55 0 5 -9 9 -20 9
-18 0 -20 -7 -20 -85 l0 -85 38 -16 c50 -23 280 -26 332 -5 90 36 139 104 140
191 0 118 -41 168 -201 248 -113 56 -143 87 -117 121 43 55 132 61 235 15 52
-23 54 -21 51 68 l-3 81 -60 13 c-76 16 -176 15 -238 -1z"/>
<path d="M4965 4016 c-22 -6 -57 -20 -77 -30 l-38 -18 0 -79 c0 -44 4 -79 8
-79 5 0 17 8 28 18 31 26 55 38 110 52 62 16 105 3 123 -36 33 -72 -11 -141
-157 -250 -101 -74 -152 -167 -152 -276 l0 -48 255 0 255 0 0 70 0 70 -155 0
c-152 0 -155 0 -145 20 6 11 47 48 93 82 120 91 144 116 172 172 90 186 -16
350 -224 345 -31 -1 -74 -7 -96 -13z"/>
<path d="M5573 4011 c-95 -37 -134 -92 -173 -246 -14 -57 -12 -199 4 -275 35
-170 121 -239 283 -227 147 11 222 106 241 306 10 103 -3 236 -29 306 -47 127
-194 188 -326 136z m133 -143 c11 -13 26 -40 33 -61 16 -49 16 -271 0 -326
-12 -42 -52 -91 -73 -91 -21 0 -56 31 -73 63 -21 42 -30 240 -14 320 21 100
82 146 127 95z"/>
<path d="M6150 4016 c-25 -7 -62 -21 -82 -30 l-38 -18 0 -79 c0 -44 2 -79 5
-79 2 0 25 13 49 29 121 76 226 59 226 -38 0 -60 -37 -113 -120 -171 -60 -42
-135 -118 -158 -160 -23 -44 -48 -161 -38 -185 5 -13 43 -15 256 -15 l250 0 0
70 0 70 -150 0 c-82 0 -150 4 -150 8 0 11 76 81 143 132 109 81 157 162 157
262 0 56 -27 122 -63 156 -59 55 -185 76 -287 48z"/>
<path d="M1902 3983 c-6 -16 -30 -80 -52 -143 -23 -63 -64 -173 -90 -245 -26
-71 -52 -143 -58 -160 -6 -16 -20 -55 -31 -85 -12 -30 -21 -60 -21 -67 0 -10
25 -13 94 -13 l93 0 24 80 24 80 127 0 128 0 6 -27 c3 -16 14 -50 23 -78 l17
-50 97 -3 c99 -3 107 0 87 36 -5 9 -21 51 -34 92 -24 75 -50 147 -67 185 -4
11 -19 54 -33 95 -22 70 -46 136 -66 185 -4 11 -13 35 -19 53 -6 17 -16 46
-22 62 l-11 30 -103 0 -103 0 -10 -27z m152 -292 c20 -61 36 -113 36 -116 0
-3 -36 -5 -81 -5 -60 0 -80 3 -77 13 2 6 20 60 38 119 19 58 38 104 41 102 4
-2 23 -53 43 -113z"/>
<path d="M2450 3640 l0 -370 80 0 80 0 1 243 c0 144 4 234 9 222 5 -11 27 -72
50 -135 51 -141 74 -204 101 -275 l21 -55 73 0 c67 0 73 2 78 23 2 12 19 60
37 107 17 47 38 105 46 130 8 25 19 54 24 65 8 20 44 117 53 145 3 8 6 -94 6
-227 l1 -243 90 0 90 0 0 370 0 370 -125 0 -124 0 -10 -32 c-5 -18 -23 -71
-41 -118 -17 -47 -40 -110 -50 -140 -10 -30 -30 -86 -44 -125 -14 -38 -26 -72
-27 -75 -1 -3 -5 9 -9 25 -4 17 -18 57 -30 90 -32 84 -98 271 -117 328 l-16
47 -124 0 -123 0 0 -370z"/>
<path d="M4010 3640 l0 -370 225 0 226 0 -3 73 -3 72 -132 3 -133 3 0 74 0 75
120 0 120 0 0 75 0 75 -120 0 -120 0 0 75 0 75 130 0 130 0 0 70 0 70 -220 0
-220 0 0 -370z"/>
<path d="M6850 3963 c-13 -27 -27 -50 -30 -53 -3 -3 -11 -16 -18 -30 -16 -31
-170 -240 -192 -260 -47 -44 -60 -73 -60 -131 l0 -59 165 0 165 0 0 -80 0 -81
78 3 77 3 3 78 3 77 49 0 50 0 0 60 0 60 -50 0 -50 0 0 230 0 230 -83 0 -82 0
-25 -47z m30 -308 l0 -105 -80 0 -81 0 64 83 c35 45 69 93 76 105 6 12 14 22
16 22 3 0 5 -47 5 -105z"/>
<path d="M760 1576 c-177 -49 -280 -193 -280 -390 0 -160 66 -274 195 -336 44
-21 64 -24 170 -24 79 -1 136 4 168 14 l47 14 0 78 c0 89 3 87 -84 58 -100
-34 -178 -22 -241 36 -42 38 -75 115 -75 174 0 90 59 183 138 216 50 21 151
18 207 -6 26 -11 49 -20 51 -20 3 0 3 39 2 87 l-3 87 -55 12 c-69 16 -181 16
-240 0z"/>
<path d="M1295 1569 c-79 -24 -129 -66 -149 -126 -21 -61 -20 -109 3 -158 28
-60 75 -98 189 -154 79 -40 105 -57 113 -78 39 -102 -163 -124 -278 -31 -7 6
-20 8 -28 4 -13 -5 -15 -21 -13 -87 l3 -82 40 -15 c28 -11 79 -16 175 -16 124
-1 139 1 180 23 81 43 110 94 110 195 0 47 -6 75 -21 102 -27 49 -47 64 -159
121 -52 26 -105 57 -117 67 -68 58 25 129 138 105 30 -6 66 -18 81 -25 52 -27
58 -21 58 60 0 47 -4 77 -12 83 -46 35 -220 41 -313 12z"/>
<path d="M3597 1575 c-62 -18 -111 -49 -145 -93 -24 -32 -27 -44 -27 -117 0
-80 1 -83 37 -127 28 -35 62 -58 143 -99 100 -49 145 -85 145 -114 0 -6 -12
-22 -26 -36 -22 -21 -34 -24 -97 -23 -71 1 -167 33 -167 55 0 5 -9 9 -20 9
-18 0 -20 -7 -20 -85 l0 -85 38 -16 c50 -23 280 -26 332 -5 94 38 140 104 140
201 0 111 -46 164 -206 240 -92 44 -114 62 -114 95 0 72 119 91 237 39 52 -23
54 -21 51 68 l-3 81 -60 13 c-76 16 -176 15 -238 -1z"/>
<path d="M4985 1576 c-22 -6 -57 -20 -77 -30 l-38 -18 0 -79 c0 -44 4 -79 8
-79 5 0 17 8 28 18 31 26 55 38 110 52 62 16 105 3 123 -36 33 -72 -11 -141
-157 -250 -101 -74 -152 -167 -152 -276 l0 -48 255 0 255 0 0 70 0 70 -155 0
c-152 0 -155 0 -145 20 6 11 47 48 93 82 117 89 141 112 171 168 97 179 -14
354 -223 349 -31 -1 -74 -7 -96 -13z"/>
<path d="M5593 1571 c-95 -37 -134 -92 -173 -246 -14 -57 -12 -199 4 -275 35
-170 121 -239 283 -227 119 9 188 72 227 207 37 125 29 305 -16 413 -25 57
-91 119 -146 135 -53 16 -128 13 -179 -7z m133 -143 c11 -13 26 -40 33 -61 16
-49 16 -271 0 -326 -12 -42 -52 -91 -73 -91 -23 0 -58 33 -73 67 -20 50 -28
214 -13 301 19 115 77 165 126 110z"/>
<path d="M6170 1576 c-25 -7 -62 -21 -82 -30 l-38 -18 0 -79 c0 -44 2 -79 5
-79 2 0 25 13 49 29 121 76 226 59 226 -38 0 -60 -37 -113 -120 -171 -60 -42
-135 -118 -158 -160 -23 -45 -48 -161 -38 -185 5 -13 40 -15 258 -13 l253 3 3
68 3 67 -156 0 c-85 0 -155 4 -155 8 0 10 75 81 125 117 128 94 175 167 175
273 0 101 -45 167 -137 202 -61 23 -144 25 -213 6z"/>
<path d="M1922 1543 c-6 -16 -30 -80 -52 -143 -23 -63 -64 -173 -90 -245 -26
-71 -52 -143 -58 -160 -6 -16 -20 -55 -31 -85 -12 -30 -21 -60 -21 -67 0 -10
25 -13 94 -13 l93 0 24 80 24 80 127 0 128 0 6 -27 c3 -16 14 -50 23 -78 l17
-50 97 -3 c99 -3 107 0 87 36 -5 9 -21 51 -34 92 -24 75 -50 147 -67 185 -4
11 -19 54 -33 95 -22 70 -46 136 -66 185 -4 11 -13 35 -19 53 -6 17 -16 46
-22 62 l-11 30 -103 0 -103 0 -10 -27z m152 -292 c20 -61 36 -113 36 -116 0
-3 -36 -5 -81 -5 -60 0 -80 3 -77 13 2 6 20 60 38 119 19 58 38 104 41 102 4
-2 23 -53 43 -113z"/>
<path d="M2470 1200 l0 -370 80 0 80 0 1 243 c0 144 4 234 9 222 5 -11 27 -72
50 -135 51 -141 74 -204 101 -275 l21 -55 73 0 c67 0 73 2 78 23 2 12 19 60
37 107 17 47 38 105 46 130 8 25 19 54 24 65 8 20 44 117 53 145 3 8 6 -94 6
-227 l1 -243 90 0 90 0 0 370 0 370 -125 0 -124 0 -10 -32 c-5 -18 -23 -71
-41 -118 -17 -47 -40 -110 -50 -140 -10 -30 -30 -86 -44 -125 -14 -38 -26 -72
-27 -75 -1 -3 -5 9 -9 25 -4 17 -18 57 -30 90 -32 84 -98 271 -117 328 l-16
47 -124 0 -123 0 0 -370z"/>
<path d="M4030 1200 l0 -370 228 2 227 3 3 58 c4 86 2 87 -149 87 l-129 0 0
75 0 75 120 0 120 0 0 75 0 75 -120 0 -120 0 0 75 0 75 130 0 130 0 0 70 0 70
-220 0 -220 0 0 -370z"/>
<path d="M6870 1523 c-13 -27 -27 -50 -30 -53 -3 -3 -11 -16 -18 -30 -16 -31
-170 -240 -192 -260 -47 -44 -60 -73 -60 -131 l0 -59 165 0 165 0 0 -80 0 -80
80 0 80 0 0 79 0 80 53 3 52 3 0 55 0 55 -52 3 -53 3 0 230 0 229 -83 0 -82 0
-25 -47z m30 -308 l0 -105 -75 0 c-41 0 -75 3 -75 6 0 3 26 40 58 82 33 42 64
87 71 100 6 12 14 22 16 22 3 0 5 -47 5 -105z"/>
</g>
</svg>
